<!--?xml version="1.0" standalone="no"?-->
              <svg id="sw-js-blob-svg" viewBox="0 0 100 100" xmlns="http://www.w3.org/2000/svg" version="1.1">
                    <defs> 
                        <linearGradient id="sw-gradient" x1="0" x2="1" y1="1" y2="0">
                            <stop id="stop1" stop-color="rgba(247.221, 247.221, 247.221, 0.51)" offset="0%"></stop>
                            <stop id="stop2" stop-color="rgba(240.391, 240.391, 240.391, 0.1)" offset="100%"></stop>
                        </linearGradient>
                    </defs>
                <path fill="url(#sw-gradient)" d="M25,-31.3C31,-24.7,33.6,-15.6,33.3,-7.4C33,0.8,29.7,8.1,24.6,11.7C19.5,15.3,12.5,15.2,6.2,18C-0.2,20.8,-5.9,26.4,-9.1,25.2C-12.3,24,-12.9,15.9,-18.2,9.3C-23.4,2.7,-33.4,-2.5,-34.3,-7.5C-35.1,-12.6,-27,-17.5,-19.8,-23.9C-12.6,-30.3,-6.3,-38,1.6,-39.9C9.5,-41.8,19,-37.9,25,-31.3Z" width="100%" height="100%" transform="translate(50 50)" style="transition: all 0.3s ease 0s;" stroke-width="0" stroke="url(#sw-gradient)"></path>
              </svg>